<?xml version="1.0" standalone="no"?>
<!DOCTYPE svg PUBLIC "-//W3C//DTD SVG 20010904//EN"
 "http://www.w3.org/TR/2001/REC-SVG-20010904/DTD/svg10.dtd">
<svg version="1.0" xmlns="http://www.w3.org/2000/svg"
 width="450.000000pt" height="450.000000pt" viewBox="0 0 450.000000 450.000000"
 preserveAspectRatio="xMidYMid meet">
<metadata>
Created by potrace 1.11, written by Peter Selinger 2001-2013
</metadata>
<g transform="translate(0.000000,450.000000) scale(0.100000,-0.100000)"
fill="#000000" stroke="none">
<path d="M205 4121 c-50 -22 -91 -69 -105 -119 -14 -51 -14 -2753 0 -2804 14
-50 55 -97 105 -119 38 -18 86 -19 853 -19 l812 0 0 -32 c0 -18 -7 -102 -15
-185 -16 -174 -31 -214 -93 -257 -53 -36 -118 -55 -226 -65 -81 -8 -92 -11
-114 -37 -19 -22 -23 -35 -18 -63 12 -76 -46 -71 845 -71 l798 0 20 22 c29 33
34 53 21 89 -13 37 -57 59 -118 59 -67 0 -176 29 -222 60 -71 47 -88 88 -103
253 -8 78 -16 161 -19 184 l-6 43 834 2 834 3 39 31 c21 16 48 50 61 74 l22
44 0 1386 c0 1325 -1 1387 -19 1425 -22 48 -54 79 -103 100 -33 13 -255 15
-2040 15 -1922 0 -2005 -1 -2043 -19z"/>
</g>
</svg>
